<?xml version="1.0" encoding="utf-8"?>
<!-- Generator: Adobe Illustrator 19.0.0, SVG Export Plug-In . SVG Version: 6.00 Build 0)  -->
<svg version="1.1" id="Layer_1" xmlns="http://www.w3.org/2000/svg" xmlns:xlink="http://www.w3.org/1999/xlink" x="0px" y="0px"
	 viewBox="0 0 144.6 12.7" style="enable-background:new 0 0 144.6 12.7;" xml:space="preserve">
<style type="text/css">
	.st0{fill:#1F3E77;}
</style>
<g>
	<path class="st0" d="M6.5,0.1H0.9C0.4,0.1,0,0.6,0,1.1v10.6c0,0.5,0.4,0.9,0.9,0.9s0.9-0.4,0.9-0.9V6h3.1c0.5,0,0.9-0.4,0.9-0.9
		s-0.3-1-0.8-1H1.8V2h4.6C7,2,7.4,1.6,7.4,1.1S7,0.1,6.5,0.1"/>
	<path class="st0" d="M58.8,2c0.5,0,0.9-0.4,0.9-0.9s-0.4-0.9-0.9-0.9h-5.5c-0.5,0-0.9,0.4-0.9,0.9v10.6c0,0.5,0.4,0.9,0.9,0.9h5.5
		c0.5,0,0.9-0.4,0.9-0.9s-0.4-0.9-0.9-0.9h-4.6V6h3.1c0.5,0,0.9-0.4,0.9-0.9s-0.4-1-0.9-1h-3.1V2H58.8z"/>
	<path class="st0" d="M27.5,0.1H21c-0.5,0-0.9,0.4-0.9,0.9s0.4,0.9,0.9,0.9h2.3v9.7c0,0.5,0.4,0.9,0.9,0.9c0.5,0,0.9-0.4,0.9-0.9V2
		h2.3c0.5,0,0.9-0.4,0.9-0.9S28,0.1,27.5,0.1"/>
	<path class="st0" d="M43.6,4.3V2h2.5c0.6,0,1.1,0.5,1.1,1.1s-0.5,1.1-1.1,1.1L43.6,4.3z M49.1,3.1c0-1.7-1.3-3-3-3h-3.5
		c-0.5,0-0.9,0.4-0.9,0.9v10.6c0,0.5,0.4,0.9,0.9,0.9c0.5,0,0.9-0.4,0.9-0.9V6.1h0.4l3.4,6c0.2,0.3,0.5,0.4,0.8,0.4
		c0.1,0,0.3-0.1,0.4-0.1c0.4-0.3,0.6-0.8,0.3-1.3L45.9,6H46C47.8,6.1,49.1,4.8,49.1,3.1"/>
	<path class="st0" d="M66.4,4.8c-0.9,0-1.6,0.7-1.6,1.6s0.7,1.6,1.6,1.6c0.9,0,1.6-0.7,1.6-1.6S67.2,4.8,66.4,4.8"/>
	<path class="st0" d="M16.4,0.1c-0.5,0-0.9,0.4-0.9,0.9V9c0,1-0.8,1.8-1.8,1.8S11.8,10,11.8,9V1.1c0-0.5-0.4-0.9-0.9-0.9
		c-0.5,0-0.9,0.4-0.9,0.9V9c0,2,1.7,3.7,3.7,3.7S17.4,11,17.4,9V1.1C17.3,0.6,16.9,0.1,16.4,0.1"/>
	<path class="st0" d="M37.6,0.1c-0.5,0-0.9,0.4-0.9,0.9V9c0,1-0.8,1.8-1.8,1.8S33,10,33,9V1.1c0-0.5-0.4-0.9-0.9-0.9
		c-0.5,0-0.9,0.4-0.9,0.9V9c0,2,1.7,3.7,3.7,3.7S38.6,11,38.6,9V1.1C38.5,0.6,38.1,0.1,37.6,0.1"/>
	<path class="st0" d="M81,0.1h-5.5c-0.5,0-0.9,0.4-0.9,0.9v10.6c0,0.5,0.4,0.9,0.9,0.9s0.9-0.4,0.9-0.9V6h3.1c0.5,0,0.9-0.4,0.9-0.9
		S80,4.3,79.5,4.3h-3.1V2H81c0.5,0,0.9-0.4,0.9-0.9S81.5,0.1,81,0.1"/>
	<path class="st0" d="M90.9,2c0.5,0,0.9-0.4,0.9-0.9s-0.4-0.9-0.9-0.9h-5.5c-0.5,0-0.9,0.4-0.9,0.9S84.9,2,85.4,2h1.8v8.6h-1.8
		c-0.5,0-0.9,0.4-0.9,0.9s0.4,0.9,0.9,0.9h5.5c0.5,0,0.9-0.4,0.9-0.9s-0.4-0.9-0.9-0.9h-1.8V2H90.9z"/>
	<path class="st0" d="M143.7,10.7h-4.6V6h3.1c0.5,0,0.9-0.4,0.9-0.9c0-0.5-0.4-0.9-0.9-0.9h-3.1V2h4.6c0.5,0,0.9-0.4,0.9-0.9
		s-0.4-0.9-0.9-0.9h-5.5c-0.5,0-0.9,0.4-0.9,0.9v10.6c0,0.5,0.4,0.9,0.9,0.9h5.5c0.5,0,0.9-0.4,0.9-0.9
		C144.6,11.2,144.2,10.7,143.7,10.7"/>
	<path class="st0" d="M101.5,0.1c-0.5,0-0.9,0.4-0.9,0.9v6.9l-3.8-7.3c-0.2-0.4-0.6-0.6-1-0.4S95.1,0.6,95.1,1v10.6
		c0,0.5,0.4,0.9,0.9,0.9c0.5,0,0.9-0.4,0.9-0.9V4.8l3.8,7.3c0.2,0.3,0.4,0.5,0.8,0.5c0.1,0,0.1,0,0.2,0c0.4-0.1,0.7-0.4,0.7-0.9V1.1
		C102.4,0.6,102,0.1,101.5,0.1"/>
	<path class="st0" d="M122.7,0.1c-0.5,0-0.9,0.4-0.9,0.9v6.9L118,0.6c-0.2-0.4-0.6-0.6-1-0.4s-0.7,0.4-0.7,0.9v10.6
		c0,0.5,0.4,0.9,0.9,0.9c0.5,0,0.9-0.4,0.9-0.9V4.8l3.8,7.3c0.2,0.3,0.4,0.5,0.8,0.5c0.1,0,0.1,0,0.2,0c0.4-0.1,0.7-0.4,0.7-0.9V1.1
		C123.6,0.6,123.3,0.1,122.7,0.1"/>
	<path class="st0" d="M108.5,7.9l0.9-3.3l0.9,3.3H108.5z M110.2,0.8c0-0.1-0.1-0.3-0.2-0.4c-0.2-0.3-0.4-0.4-0.7-0.4
		c-0.3,0-0.6,0.1-0.7,0.4c-0.1,0.1-0.1,0.3-0.2,0.4l-2.7,10.6c-0.1,0.5,0.2,1,0.6,1.1c0.5,0.1,1-0.2,1.1-0.6l0.6-2.1h2.7l0.6,2.1
		c0.1,0.4,0.5,0.7,0.9,0.7c0.1,0,0.1,0,0.3,0c0.5-0.1,0.8-0.6,0.6-1.1L110.2,0.8z"/>
	<path class="st0" d="M130.6,1.8c1,0,1.8,0.8,1.8,1.8c0,0.5,0.4,0.9,0.9,0.9s0.9-0.4,0.9-0.9c0-2-1.7-3.7-3.7-3.7s-3.7,1.7-3.7,3.7
		V9c0,2,1.7,3.7,3.7,3.7s3.7-1.7,3.7-3.7c0-0.5-0.4-0.9-0.9-0.9s-0.9,0.4-0.9,0.9c0,1-0.8,1.8-1.8,1.8c-1,0-1.8-0.8-1.8-1.8V3.7
		C128.7,2.7,129.5,1.8,130.6,1.8"/>
</g>
</svg>
